<svg version="1.1" xmlns="http://www.w3.org/2000/svg" viewBox="0 0 1569.0804443359375 2584.952708953321" width="1569.0804443359375" height="2584.952708953321">
  <!-- svg-source:excalidraw -->
  
  <defs>
    <style class="style-fonts">
      @font-face {
        font-family: "Virgil";
        src: url("https://excalidraw.com/Virgil.woff2");
      }
      @font-face {
        font-family: "Cascadia";
        src: url("https://excalidraw.com/Cascadia.woff2");
      }
    </style>
    
  </defs>
  <rect x="0" y="0" width="1569.0804443359375" height="2584.952708953321" fill="#ffffff"></rect><g transform="translate(613.378173828125 10) rotate(0 117.50399017333984 54.00000000000003)"><text x="0" y="0" font-family="Virgil, Segoe UI Emoji" font-size="86.40000000000005px" fill="#1e1e1e" text-anchor="start" style="white-space: pre;" direction="ltr" dominant-baseline="text-before-edge">HTML</text></g><g stroke-linecap="round"><g transform="translate(606.4966037422995 119.28218296427252) rotate(0 -144.07100434849127 75.14014069918545)"><path d="M-0.27 -0.14 C-48.54 25.28, -240.86 126.43, -288.77 151.53 M1.79 -1.25 C-46.74 23.94, -241.61 124.45, -289.93 149.95" stroke="#1e1e1e" stroke-width="1" fill="none"></path></g><g transform="translate(606.4966037422995 119.28218296427252) rotate(0 -144.07100434849127 75.14014069918545)"><path d="M-269.9 127.14 C-275.64 137.01, -284.93 144.32, -289.38 150.14 M-269.87 128.57 C-274.95 132.67, -280.23 139.92, -290.83 149.13" stroke="#1e1e1e" stroke-width="1" fill="none"></path></g><g transform="translate(606.4966037422995 119.28218296427252) rotate(0 -144.07100434849127 75.14014069918545)"><path d="M-260.42 145.34 C-269.52 148.45, -282.32 149.02, -289.38 150.14 M-260.39 146.77 C-268.07 146.17, -275.8 148.72, -290.83 149.13" stroke="#1e1e1e" stroke-width="1" fill="none"></path></g></g><mask></mask><g transform="translate(39.378173828125 210) rotate(0 129.378173828125 56.5)"><text x="129.378173828125" y="0" font-family="Virgil, Segoe UI Emoji" font-size="30.13333333333334px" fill="#1e1e1e" text-anchor="middle" style="white-space: pre;" direction="ltr" dominant-baseline="text-before-edge">BLOC DE NOTAS</text><text x="129.378173828125" y="37.66666666666667" font-family="Virgil, Segoe UI Emoji" font-size="30.13333333333334px" fill="#1e1e1e" text-anchor="middle" style="white-space: pre;" direction="ltr" dominant-baseline="text-before-edge">GEDIT</text><text x="129.378173828125" y="75.33333333333334" font-family="Virgil, Segoe UI Emoji" font-size="30.13333333333334px" fill="#1e1e1e" text-anchor="middle" style="white-space: pre;" direction="ltr" dominant-baseline="text-before-edge"> </text></g><g transform="translate(10 343.5) rotate(0 153.31642150878906 37.666666666666686)"><text x="0" y="0" font-family="Virgil, Segoe UI Emoji" font-size="30.13333333333334px" fill="#1e1e1e" text-anchor="start" style="white-space: pre;" direction="ltr" dominant-baseline="text-before-edge">IDE(Un entorno de </text><text x="0" y="37.66666666666667" font-family="Virgil, Segoe UI Emoji" font-size="30.13333333333334px" fill="#1e1e1e" text-anchor="start" style="white-space: pre;" direction="ltr" dominant-baseline="text-before-edge">desarrollo integrado)</text></g><g stroke-linecap="round"><g transform="translate(615.378173828125 122) rotate(0 -143.43349138106686 112.3695288773533)"><path d="M-0.79 1.18 C-48.88 38.32, -240.2 185.92, -287.86 222.98 M0.99 0.75 C-46.78 38, -237.54 186.68, -285.6 223.99" stroke="#1e1e1e" stroke-width="1" fill="none"></path></g><g transform="translate(615.378173828125 122) rotate(0 -143.43349138106686 112.3695288773533)"><path d="M-267.69 197.14 C-277.03 208, -281.8 218.02, -285.71 222.78 M-269.15 198.95 C-274.54 208.26, -280.93 216.92, -286.17 223.2" stroke="#1e1e1e" stroke-width="1" fill="none"></path></g><g transform="translate(615.378173828125 122) rotate(0 -143.43349138106686 112.3695288773533)"><path d="M-255.09 213.34 C-268.95 218.32, -278.22 222.54, -285.71 222.78 M-256.55 215.15 C-266.77 218.43, -277.87 221.03, -286.17 223.2" stroke="#1e1e1e" stroke-width="1" fill="none"></path></g></g><mask></mask><g transform="translate(595.9481402587892 218) rotate(0 143.9227752685547 24.5)"><text x="143.9227752685547" y="0" font-family="Virgil, Segoe UI Emoji" font-size="39.20000000000002px" fill="#1e1e1e" text-anchor="middle" style="white-space: pre;" direction="ltr" dominant-baseline="text-before-edge">elemento HTML</text></g><g stroke-linecap="round"><g transform="translate(723.3993899973239 134) rotate(0 2.7098364361555127 35.78666015267373)"><path d="M1.14 -1.03 C1.96 11, 4.23 60.27, 5.15 72.61 M0.27 1.04 C0.88 12.68, 2.93 59.11, 3.95 70.8" stroke="#1e1e1e" stroke-width="1" fill="none"></path></g><g transform="translate(723.3993899973239 134) rotate(0 2.7098364361555127 35.78666015267373)"><path d="M-9.77 42.52 C-3.16 53.56, 1.27 59.7, 3.01 71.67 M-7.59 43.61 C-4.28 49.53, -1.14 58.14, 4.21 69.9" stroke="#1e1e1e" stroke-width="1" fill="none"></path></g><g transform="translate(723.3993899973239 134) rotate(0 2.7098364361555127 35.78666015267373)"><path d="M10.71 41.24 C10.87 52.88, 8.84 59.42, 3.01 71.67 M12.89 42.32 C10.92 48.58, 8.79 57.51, 4.21 69.9" stroke="#1e1e1e" stroke-width="1" fill="none"></path></g></g><mask></mask><g transform="translate(470.6583709716797 335) rotate(0 225.1611328125 34.5)"><text x="225.1611328125" y="0" font-family="Helvetica, Segoe UI Emoji" font-size="20px" fill="#1e1e1e" text-anchor="middle" style="white-space: pre;" direction="ltr" dominant-baseline="text-before-edge">&lt;nombreetiqueta&gt;</text><text x="225.1611328125" y="23" font-family="Helvetica, Segoe UI Emoji" font-size="20px" fill="#1e1e1e" text-anchor="middle" style="white-space: pre;" direction="ltr" dominant-baseline="text-before-edge">&lt;nombreetiqueta&gt; contenido ... &lt;/nombreetiqueta&gt;</text><text x="225.1611328125" y="46" font-family="Helvetica, Segoe UI Emoji" font-size="20px" fill="#1e1e1e" text-anchor="middle" style="white-space: pre;" direction="ltr" dominant-baseline="text-before-edge"></text></g><g transform="translate(408.408203125 151) rotate(0 29.969970703125 12.5)"><text x="29.969970703125" y="0" font-family="Virgil, Segoe UI Emoji" font-size="20px" fill="#1e1e1e" text-anchor="middle" style="white-space: pre;" direction="ltr" dominant-baseline="text-before-edge">editar</text></g><g stroke-linecap="round"><g transform="translate(723.0314714654767 268) rotate(0 -0.9498592717368979 26.883489510337824)"><path d="M-1.05 -0.74 C-1.19 8.18, -1.57 44, -1.81 52.98 M0.59 1.49 C0.43 10.65, -1.83 45.67, -2.49 54.5" stroke="#1e1e1e" stroke-width="1" fill="none"></path></g><g transform="translate(723.0314714654767 268) rotate(0 -0.9498592717368979 26.883489510337824)"><path d="M-11.08 29.88 C-8.4 34.34, -6.57 39.16, -3.5 54.53 M-8.99 29.52 C-7.13 35.78, -6.8 42.1, -2.35 54.68" stroke="#1e1e1e" stroke-width="1" fill="none"></path></g><g transform="translate(723.0314714654767 268) rotate(0 -0.9498592717368979 26.883489510337824)"><path d="M7.02 31.11 C5.77 35.14, 3.66 39.7, -3.5 54.53 M9.11 30.75 C6 36.85, 1.35 42.82, -2.35 54.68" stroke="#1e1e1e" stroke-width="1" fill="none"></path></g></g><mask></mask><g stroke-linecap="round" transform="translate(667.378173828125 507) rotate(0 73 35)"><path d="M41.47 2.87 C50.92 0.35, 65.97 0.71, 77.23 0.91 C88.49 1.11, 99.52 1.57, 109.04 4.07 C118.57 6.57, 128.28 11.08, 134.41 15.9 C140.53 20.71, 144.74 27.5, 145.79 32.96 C146.84 38.43, 145.17 43.94, 140.71 48.69 C136.25 53.43, 127.91 58.12, 119.04 61.45 C110.16 64.79, 98.45 67.46, 87.45 68.7 C76.46 69.94, 63.89 70.49, 53.07 68.9 C42.26 67.3, 30.9 62.89, 22.55 59.14 C14.2 55.38, 6.56 51.53, 2.98 46.37 C-0.6 41.21, -0.91 33.69, 1.09 28.19 C3.09 22.68, 5.94 17.71, 14.98 13.34 C24.02 8.97, 46.57 3.93, 55.35 1.97 C64.13 0, 67.43 1.21, 67.68 1.54 M64.59 0.79 C74.88 0, 89.05 1.9, 99.68 3.9 C110.3 5.89, 120.78 9.06, 128.34 12.75 C135.89 16.45, 142.44 20.66, 145.02 26.06 C147.59 31.45, 146.78 39.83, 143.82 45.11 C140.85 50.39, 135.21 54.05, 127.22 57.76 C119.24 61.47, 106.83 65.21, 95.92 67.38 C85.01 69.55, 72.72 71.54, 61.77 70.78 C50.81 70.02, 39.45 66.35, 30.18 62.81 C20.91 59.28, 11.11 54.34, 6.15 49.57 C1.19 44.81, -0.08 39.58, 0.43 34.21 C0.94 28.85, 3.68 22, 9.21 17.38 C14.74 12.76, 23.97 9.22, 33.61 6.49 C43.26 3.77, 61.51 2.06, 67.05 1.02 C72.59 -0.02, 66.71 -0.22, 66.86 0.26" stroke="#1e1e1e" stroke-width="1" fill="none"></path></g><g transform="translate(712.1781921386719 531) rotate(0 27.199981689453125 12.5)"><text x="27.199981689453125" y="0" font-family="Virgil, Segoe UI Emoji" font-size="20px" fill="#1e1e1e" text-anchor="middle" style="white-space: pre;" direction="ltr" dominant-baseline="text-before-edge">HTML</text></g><g stroke-linecap="round" transform="translate(517.378173828125 609) rotate(0 73 35)"><path d="M68.4 0.28 C79.05 -0.28, 92.88 1.83, 103.19 4.21 C113.49 6.6, 123.17 10.58, 130.23 14.58 C137.28 18.57, 143.32 22.99, 145.52 28.2 C147.72 33.41, 146.91 40.59, 143.44 45.85 C139.97 51.11, 133.03 55.86, 124.71 59.76 C116.4 63.66, 104.35 67.5, 93.56 69.26 C82.77 71.01, 71 71.39, 59.97 70.28 C48.93 69.16, 36.35 66.2, 27.36 62.56 C18.37 58.91, 10.47 53.32, 6.03 48.41 C1.59 43.51, -0.07 38.37, 0.72 33.15 C1.5 27.93, 5.03 21.71, 10.73 17.1 C16.42 12.48, 23.7 8.26, 34.89 5.48 C46.09 2.7, 69.29 1.18, 77.91 0.41 C86.53 -0.36, 86.83 0.4, 86.63 0.86 M57.51 0.44 C68.18 -1.31, 83.7 -1.75, 94.67 -0.07 C105.63 1.6, 115.61 6.55, 123.31 10.49 C131.01 14.42, 137.39 18.46, 140.85 23.53 C144.3 28.59, 145.67 35.4, 144.03 40.88 C142.4 46.37, 137.42 51.95, 131.06 56.45 C124.69 60.95, 116.1 65.58, 105.82 67.9 C95.53 70.23, 80.74 70.89, 69.35 70.41 C57.97 69.94, 47.35 67.64, 37.51 65.05 C27.67 62.46, 16.34 59.46, 10.3 54.87 C4.26 50.28, 1.78 43.07, 1.27 37.5 C0.76 31.92, 2.97 26.17, 7.25 21.43 C11.54 16.7, 18.28 12.53, 26.98 9.09 C35.68 5.64, 54.02 1.96, 59.44 0.76 C64.87 -0.44, 59.58 1.38, 59.54 1.87" stroke="#1e1e1e" stroke-width="1" fill="none"></path></g><g transform="translate(562.7681884765625 633) rotate(0 26.6099853515625 12.5)"><text x="26.6099853515625" y="0" font-family="Virgil, Segoe UI Emoji" font-size="20px" fill="#1e1e1e" text-anchor="middle" style="white-space: pre;" direction="ltr" dominant-baseline="text-before-edge">HEAD</text></g><g stroke-linecap="round" transform="translate(800.378173828125 608) rotate(0 73 35)"><path d="M75.49 -0.22 C86.42 -0.74, 98.89 1.52, 108.62 4.27 C118.34 7.03, 127.6 11.87, 133.82 16.31 C140.05 20.75, 144.83 25.48, 145.98 30.9 C147.13 36.32, 145 43.6, 140.73 48.83 C136.47 54.06, 129.03 59.01, 120.39 62.25 C111.75 65.5, 99.96 67.25, 88.89 68.28 C77.82 69.32, 64.99 69.87, 53.98 68.49 C42.98 67.11, 31.26 63.7, 22.85 60 C14.44 56.3, 7.24 51.38, 3.51 46.28 C-0.21 41.18, -1.1 34.77, 0.48 29.42 C2.06 24.07, 6.39 18.44, 12.98 14.17 C19.58 9.89, 28.33 6.09, 40.05 3.79 C51.77 1.5, 74.53 0.55, 83.32 0.39 C92.1 0.24, 93.06 2.37, 92.76 2.85 M45.99 1.09 C55.58 -0.98, 70 0.61, 81.24 1.71 C92.48 2.8, 104.19 4.88, 113.41 7.67 C122.63 10.46, 131.09 13.87, 136.56 18.44 C142.04 23, 145.87 29.68, 146.26 35.07 C146.64 40.46, 144.39 46.18, 138.87 50.79 C133.36 55.4, 122.49 59.75, 113.19 62.71 C103.88 65.66, 94.03 67.46, 83.04 68.53 C72.06 69.6, 57.93 70.76, 47.27 69.11 C36.61 67.46, 26.73 62.76, 19.08 58.64 C11.43 54.52, 4.33 49.64, 1.38 44.39 C-1.56 39.13, -1.52 32.66, 1.41 27.11 C4.34 21.57, 11.27 15.26, 18.97 11.12 C26.66 6.98, 42.69 3.67, 47.57 2.29 C52.46 0.9, 47.98 2.42, 48.28 2.8" stroke="#1e1e1e" stroke-width="1" fill="none"></path></g><g transform="translate(844.8881912231445 632) rotate(0 27.48998260498047 12.5)"><text x="27.48998260498047" y="0" font-family="Virgil, Segoe UI Emoji" font-size="20px" fill="#1e1e1e" text-anchor="middle" style="white-space: pre;" direction="ltr" dominant-baseline="text-before-edge">BODY</text></g><g stroke-linecap="round"><g transform="translate(723.378173828125 581) rotate(0 -55.031563943247306 11.639519111951813)"><path d="M0.91 -0.25 C-17.6 3.76, -91.86 19.21, -110.36 23.11 M-0.07 -1.42 C-18.74 2.87, -92.59 20.38, -110.97 24.7" stroke="#1e1e1e" stroke-width="1" fill="none"></path></g><g transform="translate(723.378173828125 581) rotate(0 -55.031563943247306 11.639519111951813)"><path d="M-86.3 9.3 C-94.81 15.84, -103.76 18.88, -110.23 24.6 M-86.42 7.58 C-92.07 11.77, -98.18 15.44, -110.68 24.03" stroke="#1e1e1e" stroke-width="1" fill="none"></path></g><g transform="translate(723.378173828125 581) rotate(0 -55.031563943247306 11.639519111951813)"><path d="M-81.59 29.28 C-91.63 28.7, -102.27 24.6, -110.23 24.6 M-81.71 27.55 C-88.6 27.17, -95.79 26.26, -110.68 24.03" stroke="#1e1e1e" stroke-width="1" fill="none"></path></g></g><mask></mask><g stroke-linecap="round"><g transform="translate(763.378173828125 574) rotate(0 47.08930351287597 14.575445748856282)"><path d="M1.14 0.25 C16.65 4.96, 78.52 23.64, 93.9 28.53 M0.28 -0.67 C15.64 4.19, 77.99 25.11, 93.42 29.82" stroke="#1e1e1e" stroke-width="1" fill="none"></path></g><g transform="translate(763.378173828125 574) rotate(0 47.08930351287597 14.575445748856282)"><path d="M63.85 32.43 C73.77 30.93, 86.68 28.97, 93.06 28.02 M62.86 31.73 C73.33 31.49, 82.14 30.18, 94.12 29.06" stroke="#1e1e1e" stroke-width="1" fill="none"></path></g><g transform="translate(763.378173828125 574) rotate(0 47.08930351287597 14.575445748856282)"><path d="M70.15 12.9 C77.77 18.69, 88.35 23.97, 93.06 28.02 M69.16 12.2 C77.69 17.75, 84.63 22.24, 94.12 29.06" stroke="#1e1e1e" stroke-width="1" fill="none"></path></g></g><mask></mask><g stroke-linecap="round" transform="translate(708.378173828125 733) rotate(0 73 35)"><path d="M82.12 -0.1 C92.84 -0.25, 105.03 2.03, 114.34 5.27 C123.65 8.5, 132.77 14.21, 138 19.33 C143.23 24.45, 145.93 30.77, 145.73 36 C145.53 41.22, 142.04 45.94, 136.83 50.66 C131.62 55.38, 123.62 61.15, 114.49 64.31 C105.35 67.47, 93.37 69.2, 82.05 69.63 C70.73 70.05, 57.27 68.9, 46.58 66.88 C35.88 64.86, 25.4 61.45, 17.87 57.52 C10.35 53.58, 4.13 48.37, 1.41 43.27 C-1.3 38.18, -1.11 32.35, 1.58 26.94 C4.28 21.54, 9.81 14.8, 17.58 10.84 C25.35 6.87, 36.69 4.82, 48.18 3.16 C59.67 1.5, 79.27 1.05, 86.52 0.87 C93.78 0.7, 91.99 1.55, 91.73 2.14 M95.76 2.37 C106.37 3.22, 116.82 5.58, 124.77 9.56 C132.72 13.55, 139.99 20.7, 143.46 26.26 C146.93 31.83, 147.67 37.86, 145.58 42.94 C143.49 48.02, 138.31 52.65, 130.94 56.74 C123.57 60.83, 111.89 65.18, 101.37 67.49 C90.84 69.81, 79.24 71.07, 67.78 70.62 C56.31 70.17, 42.09 67.7, 32.58 64.8 C23.08 61.9, 16.19 58.11, 10.76 53.22 C5.33 48.32, 0.41 40.99, 0 35.42 C-0.42 29.85, 3.57 24.73, 8.28 19.81 C12.98 14.89, 19.55 9.27, 28.25 5.91 C36.96 2.54, 49.29 0.33, 60.52 -0.36 C71.75 -1.06, 89.6 1.14, 95.61 1.75 C101.63 2.37, 96.82 2.73, 96.63 3.32" stroke="#1e1e1e" stroke-width="1" fill="none"></path></g><g transform="translate(773.1581802368164 757) rotate(0 8.219993591308594 12.5)"><text x="8.219993591308594" y="0" font-family="Virgil, Segoe UI Emoji" font-size="20px" fill="#1e1e1e" text-anchor="middle" style="white-space: pre;" direction="ltr" dominant-baseline="text-before-edge">H1</text></g><g stroke-linecap="round" transform="translate(905.378173828125 732) rotate(0 73 35)"><path d="M67.98 0.1 C78.77 -0.59, 92.37 1.67, 102.76 3.69 C113.15 5.7, 123.31 8.24, 130.32 12.2 C137.32 16.15, 142.7 21.77, 144.79 27.4 C146.87 33.04, 146.09 40.63, 142.82 46.01 C139.54 51.4, 133.07 56.16, 125.12 59.71 C117.17 63.27, 105.84 65.82, 95.11 67.33 C84.38 68.84, 71.97 69.53, 60.72 68.79 C49.47 68.05, 36.72 65.92, 27.61 62.87 C18.5 59.82, 10.65 55.36, 6.05 50.48 C1.45 45.6, -0.77 39.04, 0.02 33.58 C0.82 28.12, 4.92 22.58, 10.82 17.74 C16.73 12.89, 25.53 7.5, 35.46 4.5 C45.39 1.51, 64 0.45, 70.38 -0.23 C76.77 -0.91, 73.72 -0.34, 73.75 0.44 M75.48 1.23 C86.17 1.18, 98.64 3.23, 108.56 5.75 C118.48 8.28, 128.87 12.02, 135 16.36 C141.13 20.7, 144.28 26.45, 145.34 31.78 C146.41 37.11, 145.5 43.32, 141.37 48.32 C137.23 53.33, 129.67 58.27, 120.54 61.82 C111.41 65.37, 97.8 68.36, 86.61 69.62 C75.43 70.89, 63.84 70.9, 53.42 69.43 C42.99 67.96, 32.47 64.66, 24.07 60.79 C15.67 56.92, 7.15 51.53, 3.03 46.21 C-1.08 40.88, -2.73 34.4, -0.63 28.84 C1.48 23.28, 8.78 17.04, 15.68 12.84 C22.57 8.65, 30.66 5.92, 40.73 3.68 C50.81 1.44, 70.28 0.12, 76.15 -0.61 C82.01 -1.35, 76.23 -1.26, 75.93 -0.71" stroke="#1e1e1e" stroke-width="1" fill="none"></path></g><g transform="translate(970.768180847168 756) rotate(0 6.609992980957031 12.5)"><text x="6.609992980957031" y="0" font-family="Virgil, Segoe UI Emoji" font-size="20px" fill="#1e1e1e" text-anchor="middle" style="white-space: pre;" direction="ltr" dominant-baseline="text-before-edge">P</text></g><g stroke-linecap="round" transform="translate(1089.378173828125 730) rotate(0 73 35)"><path d="M99.73 2.13 C110.1 3.68, 121.75 7.85, 129.04 12.12 C136.34 16.39, 141.22 22.34, 143.52 27.75 C145.83 33.16, 145.7 39.32, 142.87 44.6 C140.04 49.88, 133.95 55.48, 126.56 59.42 C119.17 63.36, 109.11 66.41, 98.54 68.24 C87.98 70.08, 74.53 71.08, 63.17 70.45 C51.81 69.81, 39.47 67.67, 30.38 64.45 C21.3 61.22, 13.71 56.07, 8.64 51.09 C3.58 46.1, -0.16 39.9, 0 34.53 C0.16 29.16, 4.26 23.54, 9.61 18.86 C14.97 14.19, 22.92 9.54, 32.11 6.48 C41.31 3.42, 51.91 0.65, 64.79 0.51 C77.67 0.36, 100.7 4.41, 109.39 5.61 C118.09 6.82, 117.64 7.27, 116.97 7.76 M92.88 2.51 C103.42 3.39, 114.84 6.94, 123.29 10.47 C131.74 14, 139.71 18.75, 143.56 23.69 C147.42 28.62, 148.77 34.64, 146.43 40.08 C144.09 45.51, 136.69 51.85, 129.51 56.28 C122.33 60.72, 113.51 64.18, 103.34 66.71 C93.17 69.23, 79.55 71.56, 68.49 71.42 C57.44 71.27, 46.51 68.74, 37.03 65.84 C27.54 62.95, 17.67 58.75, 11.56 54.05 C5.46 49.34, 1.32 42.93, 0.41 37.62 C-0.5 32.3, 1.72 26.99, 6.11 22.16 C10.51 17.32, 18.09 12.38, 26.78 8.58 C35.47 4.79, 47.03 0.48, 58.26 -0.6 C69.48 -1.69, 88.39 1.81, 94.14 2.08 C99.89 2.36, 93.14 0.46, 92.78 1.04" stroke="#1e1e1e" stroke-width="1" fill="none"></path></g><g transform="translate(1142.9581832885742 754) rotate(0 18.41999053955078 12.5)"><text x="18.41999053955078" y="0" font-family="Virgil, Segoe UI Emoji" font-size="20px" fill="#1e1e1e" text-anchor="middle" style="white-space: pre;" direction="ltr" dominant-baseline="text-before-edge">DIV</text></g><g stroke-linecap="round"><g transform="translate(865.378173828125 673) rotate(0 -33.884539344450445 25.47626583851411)"><path d="M-1.02 0.87 C-12.11 9.37, -56.38 42.55, -67.3 50.67 M0.64 0.28 C-10.56 8.46, -57.12 40.5, -68.41 48.9" stroke="#1e1e1e" stroke-width="1" fill="none"></path></g><g transform="translate(865.378173828125 673) rotate(0 -33.884539344450445 25.47626583851411)"><path d="M-49.95 23.69 C-54.34 30.55, -60.15 34.14, -69.02 47.01 M-52.32 23.87 C-57.79 33.37, -63.5 41.85, -67.84 49.7" stroke="#1e1e1e" stroke-width="1" fill="none"></path></g><g transform="translate(865.378173828125 673) rotate(0 -33.884539344450445 25.47626583851411)"><path d="M-38.04 40.4 C-45.18 43.24, -53.79 42.91, -69.02 47.01 M-40.42 40.59 C-49.98 44.38, -59.79 47.11, -67.84 49.7" stroke="#1e1e1e" stroke-width="1" fill="none"></path></g></g><mask></mask><g stroke-linecap="round"><g transform="translate(879.378173828125 682) rotate(0 42.79078622617294 25.875107946237563)"><path d="M-0.71 -0.36 C13.37 8.48, 69.9 43.14, 84.07 52.22 M1.11 -1.59 C15.6 7.45, 72.01 44.36, 86.29 53.34" stroke="#1e1e1e" stroke-width="1" fill="none"></path></g><g transform="translate(879.378173828125 682) rotate(0 42.79078622617294 25.875107946237563)"><path d="M56.44 45.18 C63.44 47.48, 74.33 48.53, 86.05 54.94 M56.3 47.51 C64.94 49.33, 72.61 50.14, 85.5 53.73" stroke="#1e1e1e" stroke-width="1" fill="none"></path></g><g transform="translate(879.378173828125 682) rotate(0 42.79078622617294 25.875107946237563)"><path d="M67.53 27.92 C71.48 34.73, 79.43 40.35, 86.05 54.94 M67.4 30.25 C72.84 36.88, 77.4 42.54, 85.5 53.73" stroke="#1e1e1e" stroke-width="1" fill="none"></path></g></g><mask></mask><g stroke-linecap="round"><g transform="translate(907.378173828125 671) rotate(0 111.70680480704641 28.394840938141556)"><path d="M-0.11 0.02 C36.87 9.23, 185.6 46.91, 222.91 56.17 M-1.63 -1.01 C35.61 8.34, 187.64 48.18, 225.05 57.8" stroke="#1e1e1e" stroke-width="1" fill="none"></path></g><g transform="translate(907.378173828125 671) rotate(0 111.70680480704641 28.394840938141556)"><path d="M195.22 58.82 C206.99 59.08, 217.56 58.14, 226.81 55.97 M196.02 61.1 C205.38 59.5, 216.33 57.99, 225.7 57.63" stroke="#1e1e1e" stroke-width="1" fill="none"></path></g><g transform="translate(907.378173828125 671) rotate(0 111.70680480704641 28.394840938141556)"><path d="M200.38 38.96 C210.3 46.89, 218.88 53.62, 226.81 55.97 M201.18 41.24 C208.72 46.86, 217.79 52.6, 225.7 57.63" stroke="#1e1e1e" stroke-width="1" fill="none"></path></g></g><mask></mask><g transform="translate(959.5003662109375 276.5) rotate(0 299.7900390625 34.5)"><text x="299.7900390625" y="0" font-family="Helvetica, Segoe UI Emoji" font-size="20px" fill="#1e1e1e" text-anchor="middle" style="white-space: pre;" direction="ltr" dominant-baseline="text-before-edge">&lt;nombreetiqueta attr1="valor" attr2="valor" attr3&gt;</text><text x="299.7900390625" y="23" font-family="Helvetica, Segoe UI Emoji" font-size="20px" fill="#1e1e1e" text-anchor="middle" style="white-space: pre;" direction="ltr" dominant-baseline="text-before-edge">&lt;nombreetiqueta attr="valor" attr3&gt; contenido ... &lt;/nombreetiqueta&gt;</text><text x="299.7900390625" y="46" font-family="Helvetica, Segoe UI Emoji" font-size="20px" fill="#1e1e1e" text-anchor="middle" style="white-space: pre;" direction="ltr" dominant-baseline="text-before-edge"></text></g><g transform="translate(1051.8458023071287 165.5) rotate(0 90.5323715209961 24.5)"><text x="90.5323715209961" y="0" font-family="Virgil, Segoe UI Emoji" font-size="39.20000000000002px" fill="#1e1e1e" text-anchor="middle" style="white-space: pre;" direction="ltr" dominant-baseline="text-before-edge">atributos</text></g><g stroke-linecap="round"><g transform="translate(810.378173828125 109) rotate(0 136.4082715541124 29.014598208954553)"><path d="M-0.91 0.81 C44.66 10.1, 228.06 47.25, 273.72 56.54 M0.82 0.19 C46.26 9.57, 227.9 48.26, 273.16 57.84" stroke="#1e1e1e" stroke-width="1" fill="none"></path></g><g transform="translate(810.378173828125 109) rotate(0 136.4082715541124 29.014598208954553)"><path d="M244.8 63.22 C252.35 61, 262.11 59.34, 274.56 58.45 M243.38 62.01 C250.02 61.89, 257.14 61.3, 272.31 57.32" stroke="#1e1e1e" stroke-width="1" fill="none"></path></g><g transform="translate(810.378173828125 109) rotate(0 136.4082715541124 29.014598208954553)"><path d="M249.07 43.15 C255.36 47.44, 263.72 52.34, 274.56 58.45 M247.64 41.93 C253.41 46.33, 259.56 50.28, 272.31 57.32" stroke="#1e1e1e" stroke-width="1" fill="none"></path></g></g><mask></mask><g transform="translate(668.2327155263973 954.6187059515491) rotate(0 201.09597778320318 54)"><text x="0" y="0" font-family="Virgil, Segoe UI Emoji" font-size="86.40000000000005px" fill="#1e1e1e" text-anchor="start" style="white-space: pre;" direction="ltr" dominant-baseline="text-before-edge">COLORES</text></g><g transform="translate(478.14929432765075 1083.0959801233294) rotate(0 390.51507568359375 52.984357134093216)"><text x="390.51507568359375" y="0" font-family="Helvetica, Segoe UI Emoji" font-size="46.073354029646275px" fill="#1e1e1e" text-anchor="middle" style="white-space: pre;" direction="ltr" dominant-baseline="text-before-edge">{0,1} = 1 bit = transferencia 1Mb</text><text x="390.51507568359375" y="52.98435713409321" font-family="Helvetica, Segoe UI Emoji" font-size="46.073354029646275px" fill="#1e1e1e" text-anchor="middle" style="white-space: pre;" direction="ltr" dominant-baseline="text-before-edge">8 bit = 1bits = almacenamiento 1MBits</text></g><g transform="translate(667.8231380304707 1287.3483464072935) rotate(0 266.58718872070307 54)"><text x="0" y="0" font-family="Virgil, Segoe UI Emoji" font-size="86.40000000000005px" fill="#1e1e1e" text-anchor="start" style="white-space: pre;" direction="ltr" dominant-baseline="text-before-edge">MONITORES</text></g><g transform="translate(515.7326669509541 1424.7444523669787) rotate(0 389.94146728515625 132.46089283523304)"><text x="389.94146728515625" y="0" font-family="Helvetica, Segoe UI Emoji" font-size="46.073354029646275px" fill="#1e1e1e" text-anchor="middle" style="white-space: pre;" direction="ltr" dominant-baseline="text-before-edge">Resolución: </text><text x="389.94146728515625" y="52.98435713409321" font-family="Helvetica, Segoe UI Emoji" font-size="46.073354029646275px" fill="#1e1e1e" text-anchor="middle" style="white-space: pre;" direction="ltr" dominant-baseline="text-before-edge">- HD  = 720P = 1280x720 píxeles </text><text x="389.94146728515625" y="105.96871426818642" font-family="Helvetica, Segoe UI Emoji" font-size="46.073354029646275px" fill="#1e1e1e" text-anchor="middle" style="white-space: pre;" direction="ltr" dominant-baseline="text-before-edge">- FHD = 1080P = 1920×1080 píxeles  </text><text x="389.94146728515625" y="158.95307140227962" font-family="Helvetica, Segoe UI Emoji" font-size="46.073354029646275px" fill="#1e1e1e" text-anchor="middle" style="white-space: pre;" direction="ltr" dominant-baseline="text-before-edge">- 2K/QHD = 1440P = 2560×1440 píxel</text><text x="389.94146728515625" y="211.93742853637283" font-family="Helvetica, Segoe UI Emoji" font-size="46.073354029646275px" fill="#1e1e1e" text-anchor="middle" style="white-space: pre;" direction="ltr" dominant-baseline="text-before-edge">- 4K = 2560P = </text></g><g stroke-linecap="round" transform="translate(756.7195858925504 1741.7845997464742) rotate(0 190.06213473707487 123.32275918054484)"><path d="M-0.49 -0.16 C136.77 1.21, 274.06 0.02, 379.52 0.81 M0.43 0.58 C127.12 -1.22, 253.38 -1.22, 379.71 -0.57 M379.37 0.61 C378.52 79.98, 378.12 158.96, 378.74 246.99 M379.85 0.48 C379.78 65.17, 379.51 129.84, 380.52 246.77 M380.95 246.51 C295.92 249.73, 212.89 250.04, -0.05 247.77 M379.54 246.97 C296.24 246.66, 213.17 246.64, -0.31 246.66 M-1.39 245.69 C-1.02 173.55, 1.33 101.21, -1.2 1 M-0.81 246.21 C-2.22 168.23, -1.67 89.54, -0.56 0.46" stroke="#1e1e1e" stroke-width="1" fill="none"></path></g><g transform="translate(909.5522998240535 1701.5623030046706) rotate(0 36.8172607421875 19.037063121120582)"><text x="36.8172607421875" y="0" font-family="Helvetica, Segoe UI Emoji" font-size="33.10793586281837px" fill="#1e1e1e" text-anchor="middle" style="white-space: pre;" direction="ltr" dominant-baseline="text-before-edge">1920</text></g><g transform="translate(1147.4934219745232 1838.615180359972) rotate(0 29.72076416015625 15.368949307624916)"><text x="29.72076416015625" y="0" font-family="Helvetica, Segoe UI Emoji" font-size="26.728607491521586px" fill="#1e1e1e" text-anchor="middle" style="white-space: pre;" direction="ltr" dominant-baseline="text-before-edge">1080</text></g><g stroke-linecap="round"><g transform="translate(757.6868232194566 1758.2276343038802) rotate(0 189.3149339402708 -0.7301656912246699)"><path d="M0.81 -0.48 C144.63 -1.3, 291.37 -1.16, 379.01 -1.01 M-0.58 -0.03 C113.53 -1.21, 227.38 -2.06, 379.21 -0.83" stroke="#1e1e1e" stroke-width="1" fill="none"></path></g></g><mask></mask><g stroke-linecap="round"><g transform="translate(757.9504053528075 1749.2854267260427) rotate(0 189.90996939444415 -0.30789290321672524)"><path d="M-0.06 0.88 C130.38 1.57, 263.29 0.67, 380.19 -1.07 M-0.37 0.08 C117.91 -1.9, 235.71 -2.42, 379.68 -0.63" stroke="#1e1e1e" stroke-width="1" fill="none"></path></g></g><mask></mask><g stroke-linecap="round"><g transform="translate(757.3553698986345 1766.2734258223468) rotate(0 189.58347874016914 -0.16407430331719297)"><path d="M-0.29 0.86 C90.61 1.3, 182.25 1.24, 378.25 -1.29 M0.37 0.09 C131.68 0.35, 263.98 -0.07, 379.45 -1.4" stroke="#1e1e1e" stroke-width="1" fill="none"></path></g></g><mask></mask><g stroke-linecap="round"><g transform="translate(758.6490978798153 1775.8019804915095) rotate(0 189.41244649909572 -0.6776248886839085)"><path d="M-0.46 -0.13 C103.59 -1.16, 209.34 0.31, 379.39 -0.61 M-0.57 0.23 C90.86 -1.87, 180.55 -2.09, 378.63 -0.69" stroke="#1e1e1e" stroke-width="1" fill="none"></path></g></g><mask></mask><g stroke-linecap="round"><g transform="translate(764.4574845078002 1987.4628807806575) rotate(0 -0.5122692291711815 -120.75336194101385)"><path d="M-1.65 1.5 C0.75 -65.99, 0.67 -129.51, -0.76 -241.29 M0.62 -0.27 C-1.13 -84.45, -1 -168.18, -1.34 -243.01" stroke="#1e1e1e" stroke-width="1" fill="none"></path></g></g><mask></mask><g stroke-linecap="round"><g transform="translate(771.7404150253152 1985.3771022045803) rotate(0 -0.1748248443636271 -121.1343404258439)"><path d="M0.47 0.66 C-0.93 -71.25, -1.11 -144.52, -0.46 -242.93 M0.34 -0.33 C-0.27 -54.65, -0.49 -108.28, -0.37 -241.97" stroke="#1e1e1e" stroke-width="1" fill="none"></path></g></g><mask></mask><g stroke-linecap="round"><g transform="translate(780.4455509674709 1987.311576858392) rotate(0 0.09813206580167844 -121.69501077624284)"><path d="M1.12 0.35 C0.91 -55.52, 0 -114.87, -0.92 -243.74 M-0.24 0.31 C-0.65 -86.67, 0.49 -173.46, -0.44 -242.13" stroke="#1e1e1e" stroke-width="1" fill="none"></path></g></g><mask></mask><g stroke-linecap="round"><g transform="translate(667.7337518171769 1803.6877886684733) rotate(0 44.532027936658324 -27.73205191768932)"><path d="M0.47 1.32 C29.26 -15.57, 53.96 -35.01, 89.38 -56.78 M-0.45 0.97 C21.78 -12.75, 43.93 -27.78, 89.51 -55.23" stroke="#1e1e1e" stroke-width="1" fill="none"></path></g><g transform="translate(667.7337518171769 1803.6877886684733) rotate(0 44.532027936658324 -27.73205191768932)"><path d="M71.31 -30.43 C77.96 -37.25, 80.84 -46.57, 89.91 -55.91 M70.39 -30.78 C75.11 -36.76, 80.07 -43.81, 90.04 -54.35" stroke="#1e1e1e" stroke-width="1" fill="none"></path></g><g transform="translate(667.7337518171769 1803.6877886684733) rotate(0 44.532027936658324 -27.73205191768932)"><path d="M60.59 -47.93 C70.4 -49.31, 76.61 -53.2, 89.91 -55.91 M59.67 -48.28 C66.84 -49.94, 74.43 -52.71, 90.04 -54.35" stroke="#1e1e1e" stroke-width="1" fill="none"></path></g></g><mask></mask><g transform="translate(516.8400277256698 1813.3601619375354) rotate(0 94.72919464111328 21.655991932515462)"><text x="94.72919464111328" y="0" font-family="Helvetica, Segoe UI Emoji" font-size="37.662594665244285px" fill="#1e1e1e" text-anchor="middle" style="white-space: pre;" direction="ltr" dominant-baseline="text-before-edge">PÍXEL = px</text></g><g transform="translate(610.963585586532 2048.4494533266707) rotate(0 334.3672790527344 79.47653570113971)"><text x="334.3672790527344" y="0" font-family="Helvetica, Segoe UI Emoji" font-size="46.073354029646275px" fill="#1e1e1e" text-anchor="middle" style="white-space: pre;" direction="ltr" dominant-baseline="text-before-edge">Tamaño de pantalla: </text><text x="334.3672790527344" y="52.98435713409321" font-family="Helvetica, Segoe UI Emoji" font-size="46.073354029646275px" fill="#1e1e1e" text-anchor="middle" style="white-space: pre;" direction="ltr" dominant-baseline="text-before-edge">- Pulgadas = "</text><text x="334.3672790527344" y="105.96871426818642" font-family="Helvetica, Segoe UI Emoji" font-size="46.073354029646275px" fill="#1e1e1e" text-anchor="middle" style="white-space: pre;" direction="ltr" dominant-baseline="text-before-edge">24" ,20", 19", 16", 14", 13", 6", 5"</text></g><g transform="translate(560.8558667476568 2468.9839946851343) rotate(0 380.6060485839844 52.984357134093216)"><text x="380.6060485839844" y="0" font-family="Helvetica, Segoe UI Emoji" font-size="46.073354029646275px" fill="#1e1e1e" text-anchor="middle" style="white-space: pre;" direction="ltr" dominant-baseline="text-before-edge">Tecnología de la pantalla</text><text x="380.6060485839844" y="52.98435713409321" font-family="Helvetica, Segoe UI Emoji" font-size="46.073354029646275px" fill="#1e1e1e" text-anchor="middle" style="white-space: pre;" direction="ltr" dominant-baseline="text-before-edge">CRT, LCD, IPS, OLED, VA, AMOLED</text></g><g stroke-linecap="round" transform="translate(869.88635314058 2250.5514336991528) rotate(0 106.87972462313883 68.19023154688944)"><path d="M1.23 1.24 C49.21 0.46, 101.51 0.26, 214.84 0.76 M-0.22 -0.27 C57.49 0.53, 116.11 -1.07, 213.94 0.21 M212.63 1.54 C211.24 31.87, 212.26 61.79, 215.29 135.96 M212.78 -0.63 C214.41 51.25, 213.68 99.77, 214.7 136.69 M214.2 137.23 C133.93 135.28, 56.43 134.79, 0.74 135.03 M214.58 137.03 C167.68 136.87, 121.81 136.21, -0.43 135.51 M-1.2 137.32 C-1.45 81.97, -2.18 32.5, 1.19 1.29 M0.86 135.93 C0.92 91.38, 0.28 45.07, 0.54 0.82" stroke="#1e1e1e" stroke-width="2" fill="none"></path></g><g stroke-linecap="round"><g transform="translate(871.8208277943922 2385.9646594660258) rotate(0 104.51595538584581 -65.14524992496331)"><path d="M-0.15 -0.75 C70.57 -43.72, 139.75 -86.97, 208.12 -130.67 M0.67 0.39 C82 -48.42, 161.73 -99.13, 209.18 -130.68" stroke="#1e1e1e" stroke-width="2" fill="none"></path></g></g><mask></mask></svg>