<svg version="1.1" xmlns="http://www.w3.org/2000/svg" viewBox="0 0 1754 1029" width="1754" height="1029">
  <!-- svg-source:excalidraw -->
  
  <defs>
    <style class="style-fonts">
      @font-face {
        font-family: "Virgil";
        src: url("https://excalidraw.com/Virgil.woff2");
      }
      @font-face {
        font-family: "Cascadia";
        src: url("https://excalidraw.com/Cascadia.woff2");
      }
    </style>
    
  </defs>
  <rect x="0" y="0" width="1754" height="1029" fill="#ffffff"></rect><g stroke-linecap="round" transform="translate(195.79998779296875 222.80003356933594) rotate(0 106 106.99999237060547)"><path d="M70.27 6.72 C80.97 1.28, 95.5 0.48, 108.48 0.71 C121.46 0.94, 136.21 3.13, 148.13 8.1 C160.05 13.07, 171.06 21.38, 179.98 30.53 C188.9 39.67, 196.36 51.27, 201.63 62.96 C206.9 74.65, 210.66 87.79, 211.59 100.67 C212.52 113.55, 211.09 127.88, 207.22 140.25 C203.35 152.62, 196.44 165.01, 188.37 174.88 C180.3 184.75, 169.98 193.31, 158.83 199.47 C147.67 205.63, 134.06 209.8, 121.45 211.84 C108.84 213.87, 95.44 214.44, 83.16 211.67 C70.87 208.9, 58.49 202.54, 47.73 195.24 C36.98 187.95, 25.95 178.4, 18.63 167.91 C11.31 157.43, 6.79 144.58, 3.81 132.34 C0.83 120.1, -0.55 107.3, 0.75 94.48 C2.05 81.67, 5.61 66.98, 11.61 55.45 C17.6 43.91, 26.16 33.65, 36.71 25.28 C47.26 16.9, 67.74 8.66, 74.9 5.23 C82.05 1.79, 79.15 3.23, 79.65 4.66 M105.66 -0.64 C117.6 -2.39, 132 0.94, 143.76 5.78 C155.52 10.61, 166.5 19.58, 176.22 28.36 C185.95 37.15, 196.1 47.11, 202.12 58.51 C208.13 69.9, 211.22 83.56, 212.31 96.76 C213.4 109.96, 212.39 125.02, 208.67 137.69 C204.94 150.36, 197.81 162.49, 189.98 172.78 C182.14 183.08, 172.62 192.93, 161.66 199.45 C150.69 205.97, 136.9 209.66, 124.17 211.89 C111.43 214.11, 97.44 215.13, 85.24 212.81 C73.04 210.49, 61.87 205.05, 50.98 197.99 C40.08 190.93, 27.72 180.7, 19.87 170.45 C12.03 160.21, 6.93 149.01, 3.92 136.54 C0.9 124.06, 0.56 108.41, 1.8 95.6 C3.05 82.78, 6.13 70.93, 11.38 59.64 C16.64 48.35, 23.71 36.77, 33.33 27.87 C42.96 18.97, 56.81 10.86, 69.12 6.23 C81.42 1.6, 100.85 0.79, 107.14 0.08 C113.43 -0.64, 107.18 0.13, 106.86 1.96" stroke="#1e1e1e" stroke-width="1" fill="none"></path></g><g transform="translate(240.79998779296875 293.3999938964844) rotate(0 66.36798858642578 30.5)"><text x="0" y="0" font-family="Virgil, Segoe UI Emoji" font-size="48.79999999999999px" fill="#1e1e1e" text-anchor="start" style="white-space: pre;" direction="ltr" dominant-baseline="text-before-edge">HTML</text></g><g stroke-linecap="round" transform="translate(383 217.00000762939453) rotate(0 106 106.99999237060547)"><path d="M89.74 1.71 C101.69 -1.64, 117.06 0.66, 129.38 3.34 C141.69 6.02, 153.03 10.86, 163.61 17.79 C174.2 24.73, 185.34 34.32, 192.88 44.97 C200.42 55.63, 205.75 69.24, 208.84 81.71 C211.93 94.18, 212.96 107.06, 211.41 119.79 C209.86 132.53, 205.48 146.6, 199.54 158.11 C193.6 169.62, 185.61 180.58, 175.79 188.85 C165.96 197.12, 152.83 203.54, 140.58 207.73 C128.32 211.91, 114.86 214.22, 102.27 213.98 C89.68 213.75, 76.63 211.24, 65.03 206.3 C53.44 201.37, 41.78 193.38, 32.67 184.38 C23.57 175.38, 15.72 164.1, 10.39 152.31 C5.07 140.52, 1.53 126.63, 0.74 113.64 C-0.05 100.64, 1.98 86.68, 5.67 74.33 C9.36 61.98, 15.09 49.52, 22.88 39.54 C30.67 29.56, 38.92 21.06, 52.4 14.43 C65.88 7.79, 92.69 1.53, 103.77 -0.28 C114.85 -2.1, 118.74 1.67, 118.89 3.53 M61.31 9.4 C71.47 2.73, 85.28 -0.08, 98.28 -0.69 C111.27 -1.29, 127.03 1.83, 139.27 5.77 C151.51 9.71, 161.8 14.93, 171.7 22.97 C181.61 31, 191.99 42.66, 198.69 53.98 C205.4 65.3, 210.15 78.04, 211.93 90.89 C213.72 103.73, 212.25 118.44, 209.4 131.05 C206.56 143.65, 201.75 155.93, 194.86 166.51 C187.98 177.09, 178.43 187.29, 168.08 194.51 C157.74 201.74, 145.4 206.91, 132.8 209.87 C120.21 212.82, 105.47 213.68, 92.51 212.24 C79.55 210.79, 66.27 207.06, 55.03 201.19 C43.79 195.31, 33.28 186.49, 25.07 176.97 C16.87 167.45, 9.89 156.48, 5.79 144.08 C1.7 131.67, 0.05 115.54, 0.51 102.52 C0.98 89.51, 3.58 77.77, 8.58 65.99 C13.59 54.21, 21.72 40.97, 30.55 31.84 C39.38 22.71, 56.13 14.74, 61.55 11.22 C66.96 7.7, 62.29 9.36, 63.05 10.73" stroke="#1e1e1e" stroke-width="1" fill="none"></path></g><g transform="translate(451 298.59996795654297) rotate(0 45.38398742675781 30.5)"><text x="0" y="0" font-family="Virgil, Segoe UI Emoji" font-size="48.79999999999999px" fill="#1e1e1e" text-anchor="start" style="white-space: pre;" direction="ltr" dominant-baseline="text-before-edge">CSS</text></g><g stroke-linecap="round" transform="translate(295 352.00000762939453) rotate(0 106 106.99999237060547)"><path d="M85.33 1.59 C96.93 -2.23, 112.97 -0.24, 125.57 2.04 C138.18 4.31, 150.09 8.67, 160.97 15.24 C171.85 21.8, 183 30.98, 190.87 41.42 C198.75 51.86, 204.77 65.46, 208.21 77.85 C211.66 90.24, 212.77 103.15, 211.54 115.76 C210.3 128.37, 206.57 141.84, 200.82 153.52 C195.07 165.2, 186.26 176.93, 177.04 185.83 C167.82 194.74, 157.2 202.3, 145.51 206.94 C133.82 211.58, 119.79 213.77, 106.91 213.68 C94.02 213.59, 80.11 210.75, 68.21 206.38 C56.31 202.02, 45.07 195.9, 35.48 187.5 C25.9 179.11, 16.51 167.67, 10.69 155.99 C4.87 144.31, 1.72 130.43, 0.56 117.42 C-0.61 104.41, 0.14 90.16, 3.69 77.91 C7.24 65.67, 14.21 54.24, 21.83 43.96 C29.46 33.67, 35.94 23.63, 49.45 16.19 C62.96 8.76, 90.93 1.5, 102.89 -0.65 C114.84 -2.8, 120.93 1.52, 121.15 3.28 M81.2 2.87 C92.5 -1.21, 107.25 0.04, 120.31 1.84 C133.36 3.65, 148.44 7.51, 159.51 13.67 C170.58 19.84, 178.71 29.04, 186.71 38.86 C194.7 48.67, 203.53 60.15, 207.49 72.56 C211.45 84.97, 211.5 100.26, 210.48 113.33 C209.45 126.4, 206.47 139.11, 201.36 150.98 C196.25 162.85, 188.53 175.67, 179.79 184.54 C171.05 193.41, 160.58 199.09, 148.92 204.2 C137.25 209.31, 122.86 214.66, 109.77 215.19 C96.69 215.71, 82.55 211.94, 70.41 207.35 C58.28 202.76, 46.42 195.83, 36.97 187.63 C27.52 179.44, 19.84 169.24, 13.71 158.18 C7.57 147.11, 1.87 134.12, 0.15 121.24 C-1.57 108.35, 0.47 93.66, 3.38 80.87 C6.29 68.09, 10.51 54.91, 17.59 44.52 C24.66 34.13, 34.91 25.32, 45.82 18.52 C56.74 11.71, 77.03 6.16, 83.07 3.7 C89.1 1.24, 81.64 1.99, 82.02 3.77" stroke="#1e1e1e" stroke-width="1" fill="none"></path></g><g transform="translate(369.6160125732422 437.5) rotate(0 30.304794311523438 30.5)"><text x="0" y="0" font-family="Virgil, Segoe UI Emoji" font-size="48.79999999999999px" fill="#1e1e1e" text-anchor="start" style="white-space: pre;" direction="ltr" dominant-baseline="text-before-edge">JS</text></g><g stroke-linecap="round" transform="translate(80 135) rotate(0 326 253.5)"><path d="M32 0 M32 0 C263.28 0.42, 495.3 -0.73, 620 0 M32 0 C223.43 0.31, 414.05 0.83, 620 0 M620 0 C639.47 -0.76, 653.23 10.57, 652 32 M620 0 C643 0.26, 652.49 8.96, 652 32 M652 32 C652.37 191.1, 653.66 350.09, 652 475 M652 32 C652.54 208.93, 652.37 385.69, 652 475 M652 475 C650.83 494.5, 641.83 508.8, 620 507 M652 475 C652.33 494.11, 643.21 506.99, 620 507 M620 507 C435.41 508.83, 249.99 508.72, 32 507 M620 507 C433.32 506.3, 246.53 506.59, 32 507 M32 507 C9.73 505.06, -0.67 498.27, 0 475 M32 507 C9.9 507.39, 1.47 496.33, 0 475 M0 475 C-2.06 371.27, -1.82 265.89, 0 32 M0 475 C0.81 326.82, 0.86 178.76, 0 32 M0 32 C0.96 12.55, 12.08 -1.74, 32 0 M0 32 C-1.38 11.76, 9.63 1.62, 32 0" stroke="#1e1e1e" stroke-width="1" fill="none"></path></g><g stroke-linecap="round"><g transform="translate(294.9938415186291 278) rotate(0 -45.75107408314932 -45.34820031523705)"><path d="M-0.72 0.43 C-16.13 -14.72, -76.67 -76.14, -91.78 -91.12 M1.11 -0.39 C-14.5 -15.42, -77.12 -74.99, -92.61 -90.18" stroke="#1e1e1e" stroke-width="1" fill="none"></path></g><g transform="translate(294.9938415186291 278) rotate(0 -45.75107408314932 -45.34820031523705)"><path d="M-64.48 -77.64 C-76.82 -81.46, -83.8 -88.59, -94.12 -91.62 M-65.99 -78.02 C-75.67 -82.48, -86.88 -87.89, -93.23 -90.35" stroke="#1e1e1e" stroke-width="1" fill="none"></path></g><g transform="translate(294.9938415186291 278) rotate(0 -45.75107408314932 -45.34820031523705)"><path d="M-78.72 -62.86 C-85.95 -71.87, -87.86 -84.26, -94.12 -91.62 M-80.23 -63.25 C-84.57 -73.25, -90.39 -84.24, -93.23 -90.35" stroke="#1e1e1e" stroke-width="1" fill="none"></path></g></g><mask></mask><g transform="translate(108 177) rotate(0 33.379974365234375 12.5)"><text x="0" y="0" font-family="Virgil, Segoe UI Emoji" font-size="20px" fill="#1e1e1e" text-anchor="start" style="white-space: pre;" direction="ltr" dominant-baseline="text-before-edge">HTML5</text></g><g transform="translate(107.62002563476562 252.5) rotate(0 17.599990844726562 12.5)"><text x="0" y="0" font-family="Virgil, Segoe UI Emoji" font-size="20px" fill="#1e1e1e" text-anchor="start" style="white-space: pre;" direction="ltr" dominant-baseline="text-before-edge">1991</text></g><g stroke-linecap="round"><g transform="translate(263.744026362648 281) rotate(0 -44.452917246163736 -8.454202643302267)"><path d="M-0.86 -1.11 C-15.56 -3.94, -74.24 -15.15, -89.15 -17.83 M0.89 0.92 C-13.83 -1.61, -74.41 -12.87, -89.79 -16.2" stroke="#1e1e1e" stroke-width="1" fill="none"></path></g><g transform="translate(263.744026362648 281) rotate(0 -44.452917246163736 -8.454202643302267)"><path d="M-62 -19.79 C-66.41 -20.98, -71.79 -17.88, -88.44 -14.27 M-60.54 -21.23 C-69.97 -20.38, -77.97 -17.99, -89.33 -15.29" stroke="#1e1e1e" stroke-width="1" fill="none"></path></g><g transform="translate(263.744026362648 281) rotate(0 -44.452917246163736 -8.454202643302267)"><path d="M-65.99 0.34 C-69.38 -5.25, -73.89 -6.57, -88.44 -14.27 M-64.54 -1.1 C-72.85 -6.5, -79.61 -10.36, -89.33 -15.29" stroke="#1e1e1e" stroke-width="1" fill="none"></path></g></g><mask></mask><g stroke-linecap="round"><g transform="translate(307.916962640395 278) rotate(0 18.622325878728418 -50.67768678069113)"><path d="M0.64 0.77 C6.92 -16.05, 31.64 -84.99, 37.72 -102.13 M-0.48 0.14 C5.6 -16.48, 29.89 -84.28, 36.55 -101.19" stroke="#1e1e1e" stroke-width="1" fill="none"></path></g><g transform="translate(307.916962640395 278) rotate(0 18.622325878728418 -50.67768678069113)"><path d="M37.59 -71.9 C34.79 -82.02, 34.99 -87.63, 38.29 -100.4 M35.33 -70.44 C36.83 -79.64, 35.56 -89.87, 37.37 -100.35" stroke="#1e1e1e" stroke-width="1" fill="none"></path></g><g transform="translate(307.916962640395 278) rotate(0 18.622325878728418 -50.67768678069113)"><path d="M18.37 -79.08 C21.35 -87.12, 27.41 -90.53, 38.29 -100.4 M16.11 -77.62 C23.42 -84.74, 27.96 -92.8, 37.37 -100.35" stroke="#1e1e1e" stroke-width="1" fill="none"></path></g></g><mask></mask><g transform="translate(239 148) rotate(0 137.7598876953125 12.5)"><text x="0" y="0" font-family="Virgil, Segoe UI Emoji" font-size="20px" fill="#1e1e1e" text-anchor="start" style="white-space: pre;" direction="ltr" dominant-baseline="text-before-edge">HyperText Markup Lenguage</text></g><g stroke-linecap="round"><g transform="translate(517.6246482261622 286) rotate(0 37.63327592568572 -37.740528684854524)"><path d="M-1.18 0.52 C11.41 -12.11, 63.71 -63.44, 76.44 -76.01 M0.41 -0.25 C12.77 -12.75, 62.69 -62.79, 75.53 -75" stroke="#1e1e1e" stroke-width="1" fill="none"></path></g><g transform="translate(517.6246482261622 286) rotate(0 37.63327592568572 -37.740528684854524)"><path d="M63.45 -47.82 C65.81 -59.95, 72.56 -69.71, 75.39 -73.7 M62.15 -48.58 C66.41 -55.13, 68.73 -60.28, 75.77 -74.31" stroke="#1e1e1e" stroke-width="1" fill="none"></path></g><g transform="translate(517.6246482261622 286) rotate(0 37.63327592568572 -37.740528684854524)"><path d="M49.09 -62.48 C56.81 -68.96, 68.96 -73.22, 75.39 -73.7 M47.79 -63.24 C55.5 -66.44, 61.22 -68.13, 75.77 -74.31" stroke="#1e1e1e" stroke-width="1" fill="none"></path></g></g><mask></mask><g transform="translate(618.6200256347656 178.5) rotate(0 25.40998077392578 12.5)"><text x="0" y="0" font-family="Virgil, Segoe UI Emoji" font-size="20px" fill="#1e1e1e" text-anchor="start" style="white-space: pre;" direction="ltr" dominant-baseline="text-before-edge">CSS3</text></g><g transform="translate(649.4000091552734 265.5) rotate(0 21.28998565673828 12.5)"><text x="0" y="0" font-family="Virgil, Segoe UI Emoji" font-size="20px" fill="#1e1e1e" text-anchor="start" style="white-space: pre;" direction="ltr" dominant-baseline="text-before-edge">1996</text></g><g stroke-linecap="round"><g transform="translate(533.24360723002 296) rotate(0 52.95746005949974 -7.777977881022764)"><path d="M-0.17 0.77 C17.63 -1.94, 89.46 -13.61, 107.64 -16.33 M-1.72 0.14 C15.84 -2.37, 88.22 -11.85, 106.62 -14.78" stroke="#1e1e1e" stroke-width="1" fill="none"></path></g><g transform="translate(533.24360723002 296) rotate(0 52.95746005949974 -7.777977881022764)"><path d="M81.47 -0.83 C89.94 -3.94, 101.01 -10.55, 108.29 -13.24 M80.96 -1.42 C86.48 -5.08, 93.77 -8.37, 106.43 -14.7" stroke="#1e1e1e" stroke-width="1" fill="none"></path></g><g transform="translate(533.24360723002 296) rotate(0 52.95746005949974 -7.777977881022764)"><path d="M78.55 -21.14 C88.09 -16.78, 100.23 -15.91, 108.29 -13.24 M78.05 -21.73 C84.3 -19.83, 92.39 -17.57, 106.43 -14.7" stroke="#1e1e1e" stroke-width="1" fill="none"></path></g></g><mask></mask><g transform="translate(604 386) rotate(0 62.5599365234375 25)"><text x="0" y="0" font-family="Virgil, Segoe UI Emoji" font-size="20px" fill="#1e1e1e" text-anchor="start" style="white-space: pre;" direction="ltr" dominant-baseline="text-before-edge">Cascading </text><text x="0" y="25" font-family="Virgil, Segoe UI Emoji" font-size="20px" fill="#1e1e1e" text-anchor="start" style="white-space: pre;" direction="ltr" dominant-baseline="text-before-edge">Style Sheets</text></g><g stroke-linecap="round"><g transform="translate(544.0000000000001 353.0000214711951) rotate(0 24.53631194327488 20.346798938781802)"><path d="M0.62 0.29 C9.06 7.14, 41.53 34.53, 49.59 41.3 M-0.52 -0.61 C7.92 5.92, 40.83 33.16, 48.95 39.75" stroke="#1e1e1e" stroke-width="1" fill="none"></path></g><g transform="translate(544.0000000000001 353.0000214711951) rotate(0 24.53631194327488 20.346798938781802)"><path d="M21.12 30.79 C28.42 31.69, 33.74 34.8, 49.83 39.04 M20.35 30.37 C30.91 32.76, 41.26 38.3, 48.71 39.5" stroke="#1e1e1e" stroke-width="1" fill="none"></path></g><g transform="translate(544.0000000000001 353.0000214711951) rotate(0 24.53631194327488 20.346798938781802)"><path d="M34.14 14.92 C38.73 19.22, 41.32 25.66, 49.83 39.04 M33.36 14.5 C39.2 22.7, 44.72 34.11, 48.71 39.5" stroke="#1e1e1e" stroke-width="1" fill="none"></path></g></g><mask></mask><g stroke-linecap="round"><g transform="translate(364.0000000000001 484.66312563627076) rotate(0 -60.60274537957275 32.806219826410285)"><path d="M-0.43 0.99 C-20.81 11.44, -101.77 53.26, -121.87 63.52 M1.55 0.46 C-19.01 11.06, -102.27 54.66, -122.75 65.16" stroke="#1e1e1e" stroke-width="1" fill="none"></path></g><g transform="translate(364.0000000000001 484.66312563627076) rotate(0 -60.60274537957275 32.806219826410285)"><path d="M-100.82 43.28 C-108.76 51.89, -117.14 57.45, -121.47 63.77 M-102.31 43.88 C-107.25 47.27, -111.35 54.28, -122.69 64.52" stroke="#1e1e1e" stroke-width="1" fill="none"></path></g><g transform="translate(364.0000000000001 484.66312563627076) rotate(0 -60.60274537957275 32.806219826410285)"><path d="M-91.36 61.49 C-102.58 64.01, -114.1 63.5, -121.47 63.77 M-92.86 62.1 C-99.89 61.11, -106.22 63.8, -122.69 64.52" stroke="#1e1e1e" stroke-width="1" fill="none"></path></g></g><mask></mask><g transform="translate(165 564) rotate(0 35.70997619628906 12.5)"><text x="0" y="0" font-family="Virgil, Segoe UI Emoji" font-size="20px" fill="#1e1e1e" text-anchor="start" style="white-space: pre;" direction="ltr" dominant-baseline="text-before-edge">ES2015</text></g><g transform="translate(134 488) rotate(0 21.069984436035156 12.5)"><text x="0" y="0" font-family="Virgil, Segoe UI Emoji" font-size="20px" fill="#1e1e1e" text-anchor="start" style="white-space: pre;" direction="ltr" dominant-baseline="text-before-edge">1995</text></g><g stroke-linecap="round"><g transform="translate(354 466.57361167812473) rotate(0 -80.25331750597337 14.064967183863104)"><path d="M0.87 0.55 C-26.09 5.03, -133.74 22.55, -160.62 27.02 M-0.14 -0.21 C-27.32 4.43, -134.58 23.53, -161.37 28.34" stroke="#1e1e1e" stroke-width="1" fill="none"></path></g><g transform="translate(354 466.57361167812473) rotate(0 -80.25331750597337 14.064967183863104)"><path d="M-134.51 13.91 C-146.33 20.37, -156.02 26.65, -162.21 27.19 M-135.34 13.65 C-145.05 18.9, -153.87 22.79, -160.75 28.92" stroke="#1e1e1e" stroke-width="1" fill="none"></path></g><g transform="translate(354 466.57361167812473) rotate(0 -80.25331750597337 14.064967183863104)"><path d="M-130.91 34.11 C-144.17 32.62, -155.28 30.93, -162.21 27.19 M-131.74 33.85 C-142.51 32.07, -152.59 28.93, -160.75 28.92" stroke="#1e1e1e" stroke-width="1" fill="none"></path></g></g><mask></mask><g stroke-linecap="round"><g transform="translate(449 476) rotate(0 51.09339074694549 26.010282015386025)"><path d="M1.02 -0.27 C17.64 8.68, 83.22 44.62, 99.93 53.48 M0.1 -1.46 C17.05 7.15, 85.31 42.35, 102.08 51.61" stroke="#1e1e1e" stroke-width="1" fill="none"></path></g><g transform="translate(449 476) rotate(0 51.09339074694549 26.010282015386025)"><path d="M71.92 45.67 C82.69 49.07, 91.18 48.44, 101.06 50.23 M73.12 46.78 C78.28 48.27, 84.68 49.01, 101.25 51.84" stroke="#1e1e1e" stroke-width="1" fill="none"></path></g><g transform="translate(449 476) rotate(0 51.09339074694549 26.010282015386025)"><path d="M81.54 27.55 C89.19 36.83, 94.6 42.02, 101.06 50.23 M82.75 28.66 C85.95 33.91, 90.38 38.38, 101.25 51.84" stroke="#1e1e1e" stroke-width="1" fill="none"></path></g></g><mask></mask><g transform="translate(577 547) rotate(0 63.39995574951172 25)"><text x="0" y="0" font-family="Virgil, Segoe UI Emoji" font-size="20px" fill="#1e1e1e" text-anchor="start" style="white-space: pre;" direction="ltr" dominant-baseline="text-before-edge">Lenguaje de </text><text x="0" y="25" font-family="Virgil, Segoe UI Emoji" font-size="20px" fill="#1e1e1e" text-anchor="start" style="white-space: pre;" direction="ltr" dominant-baseline="text-before-edge">programación</text></g><g transform="translate(288 10) rotate(0 128.19598388671875 26.99999999999997)"><text x="0" y="0" font-family="Virgil, Segoe UI Emoji" font-size="43.19999999999996px" fill="#1e1e1e" text-anchor="start" style="white-space: pre;" direction="ltr" dominant-baseline="text-before-edge">FRONT-END</text></g><g stroke-linecap="round" transform="translate(10 102) rotate(0 407.5 458.5)"><path d="M32 0 M32 0 C314.87 2.78, 598.75 2.79, 783 0 M32 0 C264.59 1.85, 497.75 2.1, 783 0 M783 0 C804.07 -1.61, 815.64 12.57, 815 32 M783 0 C803.52 -0.51, 816.27 12.89, 815 32 M815 32 C814.05 322.51, 814.22 611.69, 815 885 M815 32 C815.42 208.22, 815.79 384.06, 815 885 M815 885 C816.88 905.26, 802.89 915.57, 783 917 M815 885 C814.14 906.43, 803.33 917.87, 783 917 M783 917 C493.7 917.16, 203.96 916.47, 32 917 M783 917 C557.85 918.25, 332.18 918.57, 32 917 M32 917 C12.29 917.48, -0.13 906.11, 0 885 M32 917 C11.8 918.83, -1.24 907.38, 0 885 M0 885 C2.63 673.03, 1.98 459.97, 0 32 M0 885 C0.99 644.43, 0.46 402.85, 0 32 M0 32 C0.35 9.43, 10.17 0.23, 32 0 M0 32 C-0.04 9.22, 10.05 -2.27, 32 0" stroke="#1e1e1e" stroke-width="1" fill="none"></path></g><g transform="translate(89 774) rotate(0 176.32989501953125 12.5)"><text x="0" y="0" font-family="Virgil, Segoe UI Emoji" font-size="20px" fill="#1e1e1e" text-anchor="start" style="white-space: pre;" direction="ltr" dominant-baseline="text-before-edge">ANDROID STUDIO (JAVA/KOTLIN)</text></g><g transform="translate(189 852) rotate(0 90.1799545288086 12.5)"><text x="0" y="0" font-family="Virgil, Segoe UI Emoji" font-size="20px" fill="#1e1e1e" text-anchor="start" style="white-space: pre;" direction="ltr" dominant-baseline="text-before-edge">FLUTTER (DART)</text></g><g transform="translate(541 767) rotate(0 72.30996704101562 62.5)"><text x="72.30996704101562" y="0" font-family="Virgil, Segoe UI Emoji" font-size="20px" fill="#1e1e1e" text-anchor="middle" style="white-space: pre;" direction="ltr" dominant-baseline="text-before-edge">ANGULAR (JS)</text><text x="72.30996704101562" y="25" font-family="Virgil, Segoe UI Emoji" font-size="20px" fill="#1e1e1e" text-anchor="middle" style="white-space: pre;" direction="ltr" dominant-baseline="text-before-edge"></text><text x="72.30996704101562" y="50" font-family="Virgil, Segoe UI Emoji" font-size="20px" fill="#1e1e1e" text-anchor="middle" style="white-space: pre;" direction="ltr" dominant-baseline="text-before-edge">REACT (JS)</text><text x="72.30996704101562" y="75" font-family="Virgil, Segoe UI Emoji" font-size="20px" fill="#1e1e1e" text-anchor="middle" style="white-space: pre;" direction="ltr" dominant-baseline="text-before-edge"></text><text x="72.30996704101562" y="100" font-family="Virgil, Segoe UI Emoji" font-size="20px" fill="#1e1e1e" text-anchor="middle" style="white-space: pre;" direction="ltr" dominant-baseline="text-before-edge">IONIC ...</text></g><g stroke-linecap="round"><g transform="translate(745 393.04799001599207) rotate(0 321.93182372738136 4.424065672366368)"><path d="M-0.01 -0.63 C107.42 0.68, 537.8 6.38, 645.33 7.94 M-1.47 1.65 C105.77 3.16, 536.9 8.61, 644.56 9.48" stroke="#1e1e1e" stroke-width="1" fill="none"></path></g><g transform="translate(745 393.04799001599207) rotate(0 321.93182372738136 4.424065672366368)"><path d="M615.21 19.99 C626.48 16.15, 638.07 11.19, 644.83 9.02 M617 20.04 C624.21 15.63, 633.28 13.51, 643.81 8.49" stroke="#1e1e1e" stroke-width="1" fill="none"></path></g><g transform="translate(745 393.04799001599207) rotate(0 321.93182372738136 4.424065672366368)"><path d="M615.43 -0.53 C626.64 3.05, 638.15 5.52, 644.83 9.02 M617.22 -0.48 C624.51 1.42, 633.52 5.61, 643.81 8.49" stroke="#1e1e1e" stroke-width="1" fill="none"></path></g></g><mask></mask><g transform="translate(903.9800247192381 322) rotate(0 136.19674682617188 23)"><text x="136.19674682617188" y="0" font-family="Virgil, Segoe UI Emoji" font-size="36.799999999999976px" fill="#1e1e1e" text-anchor="middle" style="white-space: pre;" direction="ltr" dominant-baseline="text-before-edge">NAVEGADORES</text></g><g transform="translate(856.4400253295898 498) rotate(0 53.559974670410156 12.5)"><text x="53.559974670410156" y="0" font-family="Virgil, Segoe UI Emoji" font-size="20px" fill="#1e1e1e" text-anchor="middle" style="white-space: pre;" direction="ltr" dominant-baseline="text-before-edge">IMAGENES</text></g><g transform="translate(875.5000228881836 230.5) rotate(0 38.499977111816406 12.5)"><text x="38.499977111816406" y="0" font-family="Virgil, Segoe UI Emoji" font-size="20px" fill="#1e1e1e" text-anchor="middle" style="white-space: pre;" direction="ltr" dominant-baseline="text-before-edge">VIDEOS</text></g><g stroke-linecap="round"><g transform="translate(925.4557221326263 268) rotate(0 -83.60961298910092 28.379787737131096)"><path d="M-0.34 -1.09 C-28.48 8.41, -140.88 48.17, -168.9 57.85 M1.68 0.96 C-26.09 10.05, -138.18 46.61, -166.71 56.17" stroke="#1e1e1e" stroke-width="1" fill="none"></path></g><g transform="translate(925.4557221326263 268) rotate(0 -83.60961298910092 28.379787737131096)"><path d="M-144.97 35.94 C-148.59 42.13, -157.02 48.81, -165.67 55.8 M-142.34 37.44 C-149.91 43, -155.22 46.77, -166.2 55.98" stroke="#1e1e1e" stroke-width="1" fill="none"></path></g><g transform="translate(925.4557221326263 268) rotate(0 -83.60961298910092 28.379787737131096)"><path d="M-138.54 55.43 C-144.2 55.82, -154.54 56.73, -165.67 55.8 M-135.91 56.93 C-145.26 57.47, -152.24 56.18, -166.2 55.98" stroke="#1e1e1e" stroke-width="1" fill="none"></path></g></g><mask></mask><g stroke-linecap="round"><g transform="translate(917.1963550051171 483) rotate(0 -79.46238260946052 -21.424715263363908)"><path d="M-0.21 0.35 C-26.34 -6.54, -131.72 -34.15, -157.92 -41.39 M-1.77 -0.51 C-27.94 -7.75, -132.73 -36.22, -158.72 -43.2" stroke="#1e1e1e" stroke-width="1" fill="none"></path></g><g transform="translate(917.1963550051171 483) rotate(0 -79.46238260946052 -21.424715263363908)"><path d="M-128.25 -45.28 C-133.97 -43.89, -142.96 -46.35, -158.36 -41.52 M-128.64 -46.11 C-137.2 -45.77, -147.52 -43.53, -158.67 -42.55" stroke="#1e1e1e" stroke-width="1" fill="none"></path></g><g transform="translate(917.1963550051171 483) rotate(0 -79.46238260946052 -21.424715263363908)"><path d="M-133.6 -25.47 C-138.21 -28.15, -146.1 -34.68, -158.36 -41.52 M-134 -26.3 C-140.74 -32.1, -149.4 -36.03, -158.67 -42.55" stroke="#1e1e1e" stroke-width="1" fill="none"></path></g></g><mask></mask><g transform="translate(916.0700302124023 169.5) rotate(0 38.929969787597656 12.5)"><text x="38.929969787597656" y="0" font-family="Virgil, Segoe UI Emoji" font-size="20px" fill="#1e1e1e" text-anchor="middle" style="white-space: pre;" direction="ltr" dominant-baseline="text-before-edge">ICONOS</text></g><g stroke-linecap="round"><g transform="translate(971 198) rotate(0 -104.77741128753405 24.633457149779403)"><path d="M-0.72 -0.4 C-35.77 7.91, -175.87 41.32, -210.66 49.6 M1.1 -1.66 C-33.52 6.85, -173.11 42.28, -208.29 50.93" stroke="#1e1e1e" stroke-width="1" fill="none"></path></g><g transform="translate(971 198) rotate(0 -104.77741128753405 24.633457149779403)"><path d="M-184.1 33.04 C-190.84 39.4, -198.06 41.31, -210.11 52.84 M-183.35 34.32 C-188.28 37.21, -193.71 40.53, -209.11 50.07" stroke="#1e1e1e" stroke-width="1" fill="none"></path></g><g transform="translate(971 198) rotate(0 -104.77741128753405 24.633457149779403)"><path d="M-179.12 52.94 C-187.15 53.91, -195.72 50.45, -210.11 52.84 M-178.37 54.23 C-184.41 53.04, -190.85 52.33, -209.11 50.07" stroke="#1e1e1e" stroke-width="1" fill="none"></path></g></g><mask></mask><g transform="translate(1050.2100677490234 509.5) rotate(0 125.78993225097656 12.5)"><text x="125.78993225097656" y="0" font-family="Virgil, Segoe UI Emoji" font-size="20px" fill="#1e1e1e" text-anchor="middle" style="white-space: pre;" direction="ltr" dominant-baseline="text-before-edge">FUENTES (TIPOGRAFIA)</text></g><g stroke-linecap="round"><g transform="translate(1110 493) rotate(0 -175.85074036281082 -42.4953587472439)"><path d="M0.47 -0.45 C-58.1 -14.7, -293.04 -70.42, -351.84 -84.54 M-0.74 -1.73 C-59.33 -15.91, -293.52 -69.49, -352.17 -83.28" stroke="#1e1e1e" stroke-width="1" fill="none"></path></g><g transform="translate(1110 493) rotate(0 -175.85074036281082 -42.4953587472439)"><path d="M-323.15 -84.98 C-331.13 -84.65, -340.07 -83.77, -352.93 -83.83 M-322.3 -86.52 C-332.83 -85.19, -344.87 -83.48, -352.4 -82.59" stroke="#1e1e1e" stroke-width="1" fill="none"></path></g><g transform="translate(1110 493) rotate(0 -175.85074036281082 -42.4953587472439)"><path d="M-327.78 -64.98 C-334.7 -69.96, -342.42 -74.36, -352.93 -83.83 M-326.94 -66.52 C-335.78 -72.46, -346.14 -78.03, -352.4 -82.59" stroke="#1e1e1e" stroke-width="1" fill="none"></path></g></g><mask></mask><g stroke-linecap="round" transform="translate(1417 154) rotate(0 163.5 244.5)"><path d="M-0.38 -0.46 C89.67 0.65, 177.8 -0.55, 326.61 0.86 M0.24 -0.56 C75.59 -0.71, 149.56 0.17, 327.22 -0.04 M327.49 0.46 C326.45 104.65, 325.57 210.15, 326.75 488.49 M326.74 -0.41 C327.73 158.08, 328.04 316.37, 327.17 488.97 M326.02 489.77 C231.28 489.95, 136.94 490.19, -1.17 490.22 M327.66 488.76 C258.13 488.59, 188.7 488.21, 0.66 488.46 M-0.36 488.59 C0.43 324.48, 1.41 162.06, 0.52 0.72 M-0.28 488.96 C-1.42 353.73, -1.25 217.67, -0.15 0.17" stroke="#1e1e1e" stroke-width="1" fill="none"></path></g><g stroke-linecap="round" transform="translate(1434 179) rotate(0 143.5 44)"><path d="M0.94 -1.4 C95.22 0.7, 193.36 0.16, 285.72 1.18 M0.31 -0.58 C94.91 0.85, 188.41 0.41, 286.27 0.43 M286.61 1.82 C288.02 22.14, 287.9 46.52, 288.17 88.06 M287.33 0.15 C287.43 22.2, 287.58 44.24, 287.33 88.9 M287.59 87.44 C225.93 89.41, 166.45 88.69, 1.06 86.91 M287.22 87.69 C205.97 89.63, 125.9 88.82, 0.56 88.52 M1.95 87.43 C0.67 56.4, 0.25 28.85, -0.93 1.58 M0.62 87.56 C1.03 56.98, 1.18 24.01, 0.88 0.38" stroke="#1e1e1e" stroke-width="1" fill="none"></path></g><g stroke-linecap="round" transform="translate(1437 299) rotate(0 51 144.5)"><path d="M1.73 1.07 C36.41 0.04, 76.67 1.45, 101.84 0.26 M-0.15 0.31 C35.69 0.36, 71.87 -0.14, 102.59 0.2 M103.47 -1.38 C102.19 85.1, 104.11 168.51, 102.14 288.81 M102.45 0.53 C102.02 107.12, 102.3 213.37, 101.96 288.76 M101.37 287.32 C74.66 287.19, 45.08 287.79, -0.86 288.67 M101.99 288.7 C69.6 288.95, 35.7 289.55, 0.58 289.13 M-0.71 289.47 C-0.96 186.86, 0.7 82.41, 0.51 -1 M-0.46 288.41 C-0.52 179.24, -0.46 70.09, 0.12 -0.06" stroke="#1e1e1e" stroke-width="1" fill="none"></path></g><g stroke-linecap="round" transform="translate(1569 304) rotate(0 77.5 138)"><path d="M-0.52 -1.25 C57.37 2.33, 119.94 0.8, 154.5 -0.92 M-0.57 0.37 C35.84 0.08, 73.26 0.54, 155.8 -0.58 M155.4 0.28 C155.46 68.57, 156.18 138.44, 156.1 277.11 M154.38 0.57 C156.91 62.3, 157.52 124.51, 155.6 276.27 M153.68 275.85 C116.52 276.99, 80.28 276.77, -0.26 274.68 M155.56 275 C106.2 274.37, 58.16 273.91, 0.3 275.47 M-0.67 277.31 C0.92 170.91, -0.67 67.64, 1.16 -0.09 M-0.7 276.12 C0.47 207.35, 0.51 138.93, -0.2 -0.22" stroke="#1e1e1e" stroke-width="1" fill="none"></path></g><g stroke-linecap="round" transform="translate(1441 605) rotate(0 141.5 13.5)"><path d="M-1.23 0.66 C69.78 -0.12, 136.77 0.48, 283.76 0.7 M-0.43 0.58 C90.29 -2.63, 182.21 -2.72, 282.75 -0.24 M282.6 -0.72 C283.68 10.22, 283.82 20.82, 284.36 28.18 M282.14 0.36 C283.44 7.02, 283.2 12.93, 283.01 27.74 M282.45 25.93 C194.63 27.34, 108.67 28.55, -0.61 26.7 M283.64 27.21 C173.9 28.09, 64.26 28.72, 0.32 27.21 M0.32 28.56 C1.1 17.79, -0.48 5.16, -0.67 -0.47 M-0.78 27.38 C0.39 16.92, -0.84 7.31, 0.4 0.1" stroke="#1e1e1e" stroke-width="1" fill="none"></path></g><g stroke-linecap="round" transform="translate(1586 337) rotate(0 61 35)"><path d="M1.84 0.38 C44.08 -0.1, 84.67 0.41, 123.21 0.05 M-0.2 -0.83 C44.91 -0.03, 92.41 0.88, 121.7 0.6 M122.47 1.52 C123.71 16.79, 122.48 30.8, 121.86 68.78 M121.66 0.55 C122.73 15.27, 122.23 31.1, 122.47 69.14 M120.47 70.47 C95.84 72.7, 67.6 72.73, 0.01 71.15 M121.9 70.92 C73.35 70.02, 24.5 70.91, 0.34 69.56 M0.45 71.21 C1.41 49.55, -0.33 25.86, -1.14 0.09 M0.44 70.67 C-0.46 46.05, -0.06 21.35, -0.83 -0.43" stroke="#1e1e1e" stroke-width="1" fill="none"></path></g><g stroke-linecap="round" transform="translate(1590 451) rotate(0 58.5 35.5)"><path d="M-0.76 -1.75 C45.92 1.23, 91.13 -0.48, 116.59 0.09 M0.2 0.35 C45.72 -1.21, 91.67 -1.31, 117.27 -0.18 M118.04 -0.04 C116.18 20.96, 118.25 39.6, 115.52 72.42 M116.05 -0.29 C115.88 18.92, 117.31 37.92, 117.08 71.45 M118.05 72.53 C83.87 70, 48.39 70.82, 1.87 72.39 M116.09 71.55 C73.23 70.86, 30.04 70.83, -0.74 70.5 M1.45 69.39 C-0.35 48.17, 0.02 23.7, -1.62 -1.65 M0.95 71.04 C0.42 42.13, 1.26 14.88, -0.58 0.44" stroke="#1e1e1e" stroke-width="1" fill="none"></path></g><g transform="translate(1022.1000671386719 722) rotate(0 237.89993286132812 12.5)"><text x="237.89993286132812" y="0" font-family="Virgil, Segoe UI Emoji" font-size="20px" fill="#1e1e1e" text-anchor="middle" style="white-space: pre;" direction="ltr" dominant-baseline="text-before-edge">SERVIDOR                            CLIENTE</text></g><g transform="translate(967.5200729370117 788) rotate(0 101.47992706298828 62.5)"><text x="101.47992706298828" y="0" font-family="Virgil, Segoe UI Emoji" font-size="20px" fill="#1e1e1e" text-anchor="middle" style="white-space: pre;" direction="ltr" dominant-baseline="text-before-edge">WEB (HTTP/HTTPS)</text><text x="101.47992706298828" y="25" font-family="Virgil, Segoe UI Emoji" font-size="20px" fill="#1e1e1e" text-anchor="middle" style="white-space: pre;" direction="ltr" dominant-baseline="text-before-edge"></text><text x="101.47992706298828" y="50" font-family="Virgil, Segoe UI Emoji" font-size="20px" fill="#1e1e1e" text-anchor="middle" style="white-space: pre;" direction="ltr" dominant-baseline="text-before-edge">(FTP)</text><text x="101.47992706298828" y="75" font-family="Virgil, Segoe UI Emoji" font-size="20px" fill="#1e1e1e" text-anchor="middle" style="white-space: pre;" direction="ltr" dominant-baseline="text-before-edge"></text><text x="101.47992706298828" y="100" font-family="Virgil, Segoe UI Emoji" font-size="20px" fill="#1e1e1e" text-anchor="middle" style="white-space: pre;" direction="ltr" dominant-baseline="text-before-edge">...</text></g><g transform="translate(1429.1100234985352 822) rotate(0 26.889976501464844 12.5)"><text x="26.889976501464844" y="0" font-family="Virgil, Segoe UI Emoji" font-size="20px" fill="#1e1e1e" text-anchor="middle" style="white-space: pre;" direction="ltr" dominant-baseline="text-before-edge">HOST</text></g><g stroke-linecap="round"><g transform="translate(1205 829) rotate(0 89.75647321343422 1.018637692482855)"><path d="M-0.49 1.49 C55.67 1.02, 115.62 -0.13, 180 1.95 M0.24 -0.32 C67.48 1.92, 135.61 2.83, 179.73 2.13" stroke="#1e1e1e" stroke-width="1" fill="none"></path></g><g transform="translate(1205 829) rotate(0 89.75647321343422 1.018637692482855)"><path d="M151.1 14 C159.05 9.71, 170.82 4.63, 179.74 2.08 M151.83 12.19 C162.25 9.13, 173.52 5.4, 179.47 2.25" stroke="#1e1e1e" stroke-width="1" fill="none"></path></g><g transform="translate(1205 829) rotate(0 89.75647321343422 1.018637692482855)"><path d="M151 -6.52 C159.03 -4.3, 170.84 -2.87, 179.74 2.08 M151.74 -8.33 C162.13 -3.71, 173.44 0.25, 179.47 2.25" stroke="#1e1e1e" stroke-width="1" fill="none"></path></g></g><mask></mask><g transform="translate(957.8800201416016 585) rotate(0 26.119979858398438 12.5)"><text x="26.119979858398438" y="0" font-family="Virgil, Segoe UI Emoji" font-size="20px" fill="#1e1e1e" text-anchor="middle" style="white-space: pre;" direction="ltr" dominant-baseline="text-before-edge">JSON</text></g><g stroke-linecap="round"><g transform="translate(990 574) rotate(0 -113.52311672832354 -23.797592904237092)"><path d="M0.87 -0.01 C-36.84 -7.64, -189.01 -37.94, -226.98 -45.64 M-0.14 -1.07 C-37.94 -9.08, -189.99 -40.25, -227.91 -47.58" stroke="#1e1e1e" stroke-width="1" fill="none"></path></g><g transform="translate(990 574) rotate(0 -113.52311672832354 -23.797592904237092)"><path d="M-198.28 -52.07 C-204.78 -50.69, -212.87 -49.42, -228.91 -46.28 M-197.7 -52.12 C-206.94 -50.17, -215.84 -49.41, -227.79 -47.76" stroke="#1e1e1e" stroke-width="1" fill="none"></path></g><g transform="translate(990 574) rotate(0 -113.52311672832354 -23.797592904237092)"><path d="M-202.31 -31.95 C-207.86 -35.43, -214.99 -38.99, -228.91 -46.28 M-201.73 -32 C-209.63 -36.17, -217.3 -41.55, -227.79 -47.76" stroke="#1e1e1e" stroke-width="1" fill="none"></path></g></g><mask></mask></svg>